<?xml version="1.0" encoding="utf-8"?>
<!-- Generator: Adobe Illustrator 24.1.3, SVG Export Plug-In . SVG Version: 6.00 Build 0)  -->
<svg version="1.1" id="Layer_1" xmlns="http://www.w3.org/2000/svg" xmlns:xlink="http://www.w3.org/1999/xlink" x="0px" y="0px"
	 viewBox="0 0 100 100" style="enable-background:new 0 0 100 100;" xml:space="preserve">
<style type="text/css">
	.st0{fill:url(#SVGID_1_);}
	.st1{fill:none;}
	.st2{fill:#FFFFFF;}
</style>
<g transform="translate(-503 1070)">
	<g transform="translate(75 -1410)">
		<g transform="translate(428 340)">
			
				<linearGradient id="SVGID_1_" gradientUnits="userSpaceOnUse" x1="-899.4099" y1="586.11" x2="-899.4099" y2="585.11" gradientTransform="matrix(99.999 0 0 -100.0009 89990.1094 58611.5078)">
				<stop  offset="0" style="stop-color:#FE8C00"/>
				<stop  offset="1" style="stop-color:#F83600"/>
			</linearGradient>
			<path class="st0" d="M100,31.3c0-1.2,0-2.4,0-3.6c0-1,0-2,0-3c0-2.2-0.2-4.4-0.6-6.6c-0.4-2.2-1.1-4.3-2.1-6.3
				c-2-4-5.2-7.2-9.2-9.2c-2-1-4.1-1.7-6.2-2.1c-2.2-0.4-4.4-0.6-6.6-0.6c-1,0-2,0-3,0c-1.2,0-2.4,0-3.6,0H31.3c-1.2,0-2.4,0-3.6,0
				c-1,0-2,0-3,0c-2.2,0-4.4,0.2-6.6,0.6c-2.2,0.4-4.3,1.1-6.2,2.1c-4,2-7.2,5.2-9.2,9.2c-1,2-1.7,4.1-2.1,6.3
				c-0.4,2.2-0.5,4.4-0.6,6.6c0,1,0,2,0,3c0,1.2,0,2.4,0,3.6v37.4c0,1.2,0,2.4,0,3.6c0,1,0,2,0,3c0,2.2,0.2,4.4,0.6,6.6
				c0.4,2.2,1.1,4.3,2.1,6.3c2,4,5.2,7.2,9.2,9.2c2,1,4.1,1.7,6.2,2.1c2.2,0.4,4.4,0.6,6.6,0.6c1,0,2,0,3,0c1.2,0,2.4,0,3.6,0h37.4
				c1.2,0,2.4,0,3.6,0c1,0,2,0,3,0c2.2,0,4.4-0.2,6.6-0.6c2.2-0.4,4.3-1.1,6.2-2.1c4-2,7.2-5.2,9.2-9.2c1-2,1.7-4.1,2.1-6.3
				c0.4-2.2,0.5-4.4,0.6-6.6c0-1,0-2,0-3c0-1.2,0-2.4,0-3.6L100,31.3z"/>
		</g>
		<g transform="translate(-346.108 -1825.007)">
			<path class="st1" d="M840,2226.1V2215c0-0.3-0.2-0.7-0.4-0.9c-0.7-0.6-1.7-0.6-2.3,0.1c-0.3,0.3-0.4,0.7-0.4,1.1v10.8
				c-0.9,0.4-1.6,1.1-2,2h-6.9c-0.3,0-0.7,0.2-0.9,0.4c-0.6,0.7-0.6,1.7,0.1,2.3c0.3,0.3,0.7,0.4,1.1,0.4h6.6c0.9,2,3.2,2.9,5.3,2
				c0.1,0,0.2-0.1,0.3-0.1c0.6-0.3,1.2-0.8,1.5-1.5c1.1-1.9,0.4-4.4-1.6-5.4C840.2,2226.2,840.1,2226.2,840,2226.1z"/>
			<g transform="matrix(1, 0, 0, 1, 774.11, 2165.01)">
				<path class="st2" d="M80.5,57.4c-1.7-4.3-5.1-7.7-9.4-9.4c-15.2-5.9-29.4,8.3-23.5,23.5c1.7,4.3,5.1,7.7,9.4,9.4
					C72.2,86.8,86.4,72.6,80.5,57.4z M67.8,66.7c-0.3,0.6-0.8,1.2-1.5,1.5c-1.9,1.1-4.4,0.4-5.4-1.6c-0.1-0.1-0.1-0.2-0.1-0.3h-6.9
					c-0.3,0-0.7-0.2-0.9-0.4c-0.6-0.7-0.6-1.7,0.1-2.3c0.3-0.3,0.7-0.4,1.1-0.4h6.6c0.4-0.9,1.1-1.6,2-2V50c0-0.3,0.2-0.7,0.4-0.9
					c0.7-0.6,1.7-0.6,2.3,0.1c0.3,0.3,0.4,0.7,0.4,1.1v10.8c2,0.9,2.9,3.2,2,5.3C67.9,66.5,67.8,66.6,67.8,66.7z"/>
			</g>
			<path class="st1" d="M832.4,2206c0,0,0,0.1,0,0.1L832.4,2206z"/>
			<path class="st2" d="M832.4,2206L832.4,2206L832.4,2206z"/>
			<path class="st1" d="M815,2234.9c0.2,0.1,0.4,0.2,0.6,0.3C815.4,2235.1,815.2,2235,815,2234.9L815,2234.9z"/>
			<path class="st1" d="M816.2,2232c0,0.2,0.1,0.5,0.1,0.7C816.4,2232.5,816.3,2232.2,816.2,2232z"/>
			<path class="st1" d="M814.8,2229.7L814.8,2229.7C814.9,2229.7,814.8,2229.7,814.8,2229.7z"/>
			<g transform="matrix(1, 0, 0, 1, 774.11, 2165.01)">
				<path class="st2" d="M43.2,75.5c-9.2-1.6-15.9-9.6-15.9-19V43.7c0-3.6,1-7.1,2.9-10.1c0.3-0.4,0.3-0.9,0.2-1.3
					c-0.3-1.2-1.4-1.9-2.6-1.7c-0.6,0.1-1,0.5-1.4,0.9c-2.2,3.7-3.4,7.9-3.4,12.2v12.8c0,11.5,8.2,21.3,19.5,23.2
					c0.9,0.1,1.7-0.4,1.8-1.3c0,0,0-0.1,0-0.1l0.1-1.2C44.5,76.4,44,75.6,43.2,75.5z"/>
			</g>
			<g transform="matrix(1, 0, 0, 1, 774.11, 2165.01)">
				<path class="st2" d="M38,23.8c2.9-1.7,6.2-2.6,9.6-2.5c10.1,0,18.4,7.8,19.2,17.8c0.1,0.8,0.7,1.4,1.5,1.4h1.2
					c0.9,0,1.6-0.7,1.6-1.6c0,0,0-0.1,0-0.1c-0.9-13-12.2-22.7-25.2-21.8c-3.6,0.3-7.1,1.4-10.3,3.2c-0.5,0.3-0.8,0.9-0.8,1.5V22
					c0,1.2,0.9,2.1,2.1,2.1C37.3,24.1,37.7,24,38,23.8z"/>
			</g>
			<g transform="matrix(1, 0, 0, 1, 774.11, 2165.01)">
				<path class="st2" d="M62.5,40.8L62.5,40.8c-0.5-7.3-6-13.2-13.2-14.1c-8.2-0.9-15.6,5-16.6,13.2c0,0,0,0.1,0,0.1
					c-0.1,0.8,0.5,1.4,1.3,1.5c0,0,0.1,0,0.1,0h1.5c0.7,0,1.3-0.5,1.4-1.2c0.7-5.9,6.1-10,11.9-9.3c5.1,0.6,9.1,4.8,9.4,9.9l0,0v0
					l0,0.1c0,0.7,0.6,1.3,1.4,1.3c0.1,0,0.2,0,0.2,0h0c0.4,0,0.7-0.1,1.1-0.1c0.1,0,0.2,0,0.4,0c0.9-0.2,1.1-0.7,1.1-1.1
					C62.5,41,62.5,40.9,62.5,40.8z"/>
			</g>
			<g transform="matrix(1, 0, 0, 1, 774.11, 2165.01)">
				<path class="st2" d="M53.9,42.1L53.9,42.1c-0.6-2.9-3.1-5.1-6.1-5.2c-3.5-0.1-6.4,2.6-6.6,6.1c0,0.1,0,0.1,0,0.2v6.2
					c0,1.2,1,2.1,2.1,2.1l0,0c1.2,0,2.1-0.9,2.1-2.1v-6.1c0-1.1,0.8-2.1,1.9-2.2c1.2-0.1,2.2,0.7,2.3,1.9c0,0.1,0,0.1,0,0.2v0.2
					c0,0-0.5,3.2,2.8,1.5l0,0c0.1,0,0.1,0,0.2-0.1C53.7,44.3,54.2,43.1,53.9,42.1z"/>
			</g>
			<g transform="matrix(1, 0, 0, 1, 774.11, 2165.01)">
				<path class="st2" d="M41.5,70.2c0.9,0.3,1-0.8,0.8-2.5l0,0c-0.1-0.2-0.1-0.4-0.1-0.7c-0.2-0.9-0.7-1.6-1.4-2.3l-0.1,0l0,0l0,0
					c-2.4-2-3.8-5-3.8-8.2v-7c0-0.9-0.7-1.6-1.6-1.6c0,0,0,0,0,0h-1.2c-0.9,0-1.6,0.7-1.6,1.6c0,0,0,0,0,0v7c0,5.5,3.1,10.6,8,13.2
					c0.1,0,0.2,0.1,0.3,0.2C41.1,70,41.3,70.1,41.5,70.2z"/>
			</g>
			<path class="st2" d="M814.8,2229.7L814.8,2229.7L814.8,2229.7L814.8,2229.7z"/>
			<path class="st2" d="M814.7,2234.8c0.1,0.1,0.2,0.1,0.3,0.2C814.9,2234.9,814.8,2234.8,814.7,2234.8z"/>
		</g>
	</g>
</g>
</svg>
