<?xml version="1.0" encoding="utf-8"?>
<!-- Generator: Adobe Illustrator 23.0.0, SVG Export Plug-In . SVG Version: 6.00 Build 0)  -->
<svg version="1.1" id="Layer_1" xmlns="http://www.w3.org/2000/svg" xmlns:xlink="http://www.w3.org/1999/xlink" x="0px" y="0px"
	 viewBox="0 0 100 100" style="enable-background:new 0 0 100 100;" xml:space="preserve">
<style type="text/css">
	.st0{fill:url(#App_Icon_Mask_1_);}
	.st1{fill:#FFFFFF;}
	.st2{fill:none;}
</style>
<title>48px copy</title>
<g>
	<g id="Group_31576">
		
			<linearGradient id="App_Icon_Mask_1_" gradientUnits="userSpaceOnUse" x1="-160.7188" y1="331.9634" x2="-160.7188" y2="328.8322" gradientTransform="matrix(32 0 0 -32 5193 10622.832)">
			<stop  offset="0" style="stop-color:#069BFF"/>
			<stop  offset="1" style="stop-color:#166DFF"/>
		</linearGradient>
		<path id="App_Icon_Mask" class="st0" d="M100,31.3v-6.6c0-2.2-0.3-4.4-0.6-6.6c-0.3-2.2-1-4.4-2.2-6.3c-1.9-4-5.1-7.1-9.1-9.1
			c-2-0.9-4.1-1.6-6.3-2.2c-2.2-0.4-4.4-0.6-6.6-0.6H24.7c-2.2,0-4.4,0.3-6.6,0.6s-4.4,1-6.3,2.2c-4,1.8-7.2,5-9.1,9.1
			c-0.9,2-1.6,4.1-2.2,6.3c-0.4,2.2-0.6,4.4-0.6,6.6v50.6c0.1,2.2,0.3,4.4,0.6,6.6s1,4.4,2.2,6.3c1.9,4,5.1,7.1,9.1,9.1
			c2,0.9,4.1,1.6,6.3,2.2c2.2,0.4,4.4,0.6,6.6,0.6h50.6c2.2-0.1,4.4-0.3,6.6-0.6c2.2-0.3,4.4-1,6.3-2.2c4-1.9,7.1-5.1,9.1-9.1
			c0.9-2,1.6-4.1,2.2-6.3c0.4-2.2,0.6-4.4,0.6-6.6L100,31.3L100,31.3z"/>
		<path id="Path_33708" class="st1" d="M50.3,28.1c-3.5,0-6.4,2.7-6.6,6.2l0,0c0,3.6,2.9,6.5,6.6,6.6l0,0c3.6,0,6.5-2.9,6.6-6.6l0,0
			c0-3.5-2.9-6.3-6.4-6.3l0,0L50.3,28.1z"/>
		<path id="Path_33838" class="st1" d="M66.6,15H34.1c-6,0.1-10.9,4.9-10.9,10.9v47.5c0.1,6,4.9,10.9,10.9,10.9H56
			c2.5,0,4.9-1,6.6-2.8L75,68.8c1.6-1.7,2.5-3.9,2.5-6.3V25.9C77.4,19.9,72.6,15.1,66.6,15z M29.1,73.8V25.9c0-2.7,2.2-5,4.9-5l0,0
			h32.6c2.7,0,5,2.1,5,4.9l0,0v0.1l0,0v35.9h-6.3C59.6,61.9,55,66.5,55,72.2v6.3H34.1C31.4,78.5,29.2,76.4,29.1,73.8z"/>
		<path id="Path_33839" class="st1" d="M50.3,42.5L50.3,42.5c-6,0.1-11.3,3.8-13.4,9.4c-0.5,1.5,0.2,3.2,1.8,3.7l0,0h0.1
			c0.3,0,0.6,0.3,0.9,0.3H61c1.5,0.1,2.8-1.1,2.8-2.6c0-0.2,0-0.4,0-0.5c0-0.3-0.1-0.7-0.3-0.9C61.5,46.2,56.2,42.5,50.3,42.5z"/>
		<path id="Rectangle_16126" class="st1" d="M33.8,61.6h18.8c0.3,0,0.3,0,0.3,0.3v3.4c0,0.3,0,0.3-0.3,0.3H33.8
			c-0.3,0-0.3,0-0.3-0.3v-3.4C33.4,61.7,33.6,61.6,33.8,61.6z"/>
		<path id="Rectangle_16127" class="st1" d="M33.8,69.4h15.3c0.3,0,0.3,0,0.3,0.3v3.4c0,0.3,0,0.3-0.3,0.3H33.8
			c-0.3,0-0.3,0-0.3-0.3v-3.4C33.4,69.5,33.6,69.4,33.8,69.4C33.7,69.4,33.7,69.4,33.8,69.4z"/>
		<rect id="Rectangle_16128" y="0" class="st2" width="100" height="100"/>
	</g>
	<rect y="0" class="st2" width="100" height="100"/>
</g>
</svg>
