<svg xmlns="http://www.w3.org/2000/svg" xmlns:xlink="http://www.w3.org/1999/xlink" viewBox="0 0 80 80"><defs><style>.cls-1{fill:url(#linear-gradient);}.cls-2{fill:#ededed;}.cls-3{fill:#fff;}</style><linearGradient id="linear-gradient" x1="-144.06" y1="648.38" x2="-144.06" y2="645.88" gradientTransform="matrix(32, 0, 0, -32, 4650, 20748)" gradientUnits="userSpaceOnUse"><stop offset="0" stop-color="#23db9d"/><stop offset="1" stop-color="#14a575"/></linearGradient></defs><title>Asset 156</title><g id="Layer_2" data-name="Layer 2"><g id="Layer_1-2" data-name="Layer 1"><rect id="Rectangle_18991" data-name="Rectangle 18991" class="cls-1" width="80" height="80" rx="20"/><g id="Group_45674" data-name="Group 45674"><path id="Path_34801" data-name="Path 34801" class="cls-2" d="M17.43,25.21C20.82,30,25.38,34,28.26,39h0a17,17,0,0,1,11,11.36A12.47,12.47,0,0,0,36.43,40.2,28.62,28.62,0,0,0,28,33.67a45.58,45.58,0,0,1-4.31-2.55,28.39,28.39,0,0,1-3.31-2.69A27.36,27.36,0,0,1,17.43,25.21Z"/><path id="Path_34802" data-name="Path 34802" class="cls-3" d="M15.69,26.33a39.36,39.36,0,0,0,2.5,5.87,30.09,30.09,0,0,0,4.1,5.54h0a88.56,88.56,0,0,1,9.17,10.19l.28.4a25.37,25.37,0,0,1,3.33,8.05.43.43,0,0,0,0,.16,23,23,0,0,1,.49,7.67h0a4.34,4.34,0,0,1-.15,1.39,16.87,16.87,0,0,0,2.72-7.86,29.59,29.59,0,0,0-.52-9.29,21,21,0,0,0-2.81-6.78,22.19,22.19,0,0,0-2.1-2.82h0c-3.82-4.23-9-7.33-13.22-11.35-.58-.56-1.13-1.12-1.65-1.7A11.68,11.68,0,0,1,15,20.94h0a9.62,9.62,0,0,1-.36-1.27A13.14,13.14,0,0,0,15.69,26.33Z"/><ellipse id="Ellipse_2247" data-name="Ellipse 2247" class="cls-3" cx="27.71" cy="27.35" rx="3.27" ry="3.31"/><path id="Path_34803" data-name="Path 34803" class="cls-2" d="M63.56,25.21C60.16,30,55.6,34,52.67,39h0A17.07,17.07,0,0,0,41.62,50.31,12.49,12.49,0,0,1,44.5,40.19a28.76,28.76,0,0,1,8.5-6.6,45.39,45.39,0,0,0,4.31-2.53,26.63,26.63,0,0,0,3.3-2.7A26.64,26.64,0,0,0,63.56,25.21Z"/><path id="Path_34804" data-name="Path 34804" class="cls-3" d="M65.3,26.33a39.36,39.36,0,0,1-2.5,5.87,29.94,29.94,0,0,1-3.94,5.54h0a90.44,90.44,0,0,0-9.19,10.18l-.27.4a25.49,25.49,0,0,0-3.34,8,.22.22,0,0,1,0,.16,23,23,0,0,0-.48,7.67h0a4.07,4.07,0,0,0,.15,1.39A16.87,16.87,0,0,1,43,57.73a29.3,29.3,0,0,1,.52-9.29,20.93,20.93,0,0,1,2.8-6.77,22.26,22.26,0,0,1,2.11-2.82h0c3.8-4.32,9-7.43,13.19-11.43.58-.56,1.13-1.11,1.65-1.7a11.56,11.56,0,0,0,2.81-4.86h0a9.52,9.52,0,0,0,.25-1.18,13.12,13.12,0,0,1-1,6.66Z"/><ellipse id="Ellipse_2248" data-name="Ellipse 2248" class="cls-3" cx="53.28" cy="27.35" rx="3.27" ry="3.31"/><ellipse id="Ellipse_2249" data-name="Ellipse 2249" class="cls-3" cx="40.49" cy="23.91" rx="6.82" ry="6.9"/></g></g></g></svg>