<svg id="ic_payroll_48px" xmlns="http://www.w3.org/2000/svg" xmlns:xlink="http://www.w3.org/1999/xlink" width="48" height="48" viewBox="0 0 48 48">
  <defs>
    <linearGradient id="linear-gradient" x1="0.5" x2="0.5" y2="1" gradientUnits="objectBoundingBox">
      <stop offset="0" stop-color="#50b83c"/>
      <stop offset="1" stop-color="#01a38a"/>
    </linearGradient>
    <filter id="Path_33774" x="12.42" y="7.66" width="25.56" height="36.839" filterUnits="userSpaceOnUse">
      <feOffset dy="1" input="SourceAlpha"/>
      <feGaussianBlur stdDeviation="0.5" result="blur"/>
      <feFlood flood-opacity="0.161"/>
      <feComposite operator="in" in2="blur"/>
      <feComposite in="SourceGraphic"/>
    </filter>
  </defs>
  <g id="Group_30220" data-name="Group 30220">
    <path id="App_Icon_Mask-2" data-name="App Icon Mask-2" d="M1208.6,2413.012c0-.576,0-1.146,0-1.72,0-.48-.009-.966-.022-1.448a21.142,21.142,0,0,0-.277-3.152,10.634,10.634,0,0,0-.988-3,10.084,10.084,0,0,0-4.407-4.408,10.651,10.651,0,0,0-3-.987,21.164,21.164,0,0,0-3.154-.277c-.483-.013-.966-.019-1.449-.021-.572,0-1.146,0-1.719,0h-17.969c-.573,0-1.147,0-1.719,0-.483,0-.966.009-1.449.021a21.156,21.156,0,0,0-3.154.277,10.643,10.643,0,0,0-3,.987,10.077,10.077,0,0,0-4.407,4.408,10.6,10.6,0,0,0-.988,3,21.044,21.044,0,0,0-.277,3.153q-.019.724-.022,1.449c0,.573,0,1.145,0,1.719v17.969c0,.573,0,1.146,0,1.719q0,.724.022,1.448a21.05,21.05,0,0,0,.277,3.153,10.614,10.614,0,0,0,.988,3,10.09,10.09,0,0,0,4.407,4.406,10.6,10.6,0,0,0,3,.987,20.963,20.963,0,0,0,3.154.277c.48.013.966.019,1.449.021.573,0,1.146,0,1.719,0h17.969c.574,0,1.147,0,1.72,0,.483,0,.966-.008,1.449-.021a20.971,20.971,0,0,0,3.153-.277,10.615,10.615,0,0,0,3-.987,10.1,10.1,0,0,0,4.407-4.406,10.645,10.645,0,0,0,.988-3,21.149,21.149,0,0,0,.277-3.153c.013-.482.018-.965.022-1.448,0-.574,0-1.146,0-1.72Z" transform="translate(-1160.603 -2397.997)" fill="url(#linear-gradient)"/>
  </g>
  <g id="Group_30221" data-name="Group 30221" transform="translate(13.92 8.16)">
    <g transform="matrix(1, 0, 0, 1, -13.92, -8.16)" filter="url(#Path_33774)">
      <path id="Path_33774-2" data-name="Path 33774" d="M1356.28,2430a11.3,11.3,0,0,0-11.248,10.653c-.011.209-.032.415-.032.627v22.559h2.326a5.194,5.194,0,0,0,5.194-5.193V2451.9h0v-10.624a3.757,3.757,0,1,1,2.079,3.364v7.786a11.049,11.049,0,0,0,1.426.126c.085,0,.17,0,.255,0s.194,0,.291,0,.194-.006.29-.011.192-.01.287-.019a11.28,11.28,0,0,0,10.379-10.378c.008-.1.013-.192.018-.288s.009-.193.011-.289,0-.194,0-.291A11.28,11.28,0,0,0,1356.28,2430Z" transform="translate(-1331.08 -2421.84)" fill="#fff"/>
    </g>
    <path id="Path_33775" data-name="Path 33775" d="M1370.439,2453.5a3.761,3.761,0,0,1-5.441,3.364v7.787a11.134,11.134,0,0,0,1.426.126l.256,0c.1,0,.194,0,.291,0s.193-.006.289-.011.192-.011.287-.019a11.281,11.281,0,0,0,10.379-10.379c.008-.1.014-.191.019-.287s.009-.193.011-.29,0-.193,0-.291Z" transform="translate(-1355.399 -2442.22)" fill="#fff"/>
  </g>
</svg>
